<svg version="1.2" xmlns="http://www.w3.org/2000/svg" viewBox="0 0 1511 1513" width="1511" height="1513">
	<title>Chunghwa_Telecom_logo-svg</title>
	<style>
		.s0 { fill: #3363a8 } 
	</style>
	<g id="layer1">
		<path id="path21071" class="s0" d="m235.2 792.8h-234.3c-0.5-12.1-0.9-24-0.9-36.1 0-11.9 0.4-24 0.9-35.9h220.6c2.9 24.4 7.5 48.5 13.7 72zm0-288h-192.2c8.8-24.7 18.4-48.7 29.6-71.9h186.2c-9.3 23.2-17.4 47.2-23.6 71.9zm-227.5 143.9c3.5-24.3 8-48.5 13.9-71.9h199.9c-3 23.4-4.4 47.6-4.4 71.9zm286.4 288h-272.5c-5.9-23.6-10.4-47.6-13.9-72h251.1c9.9 24.7 21.7 48.7 35.3 72zm117.7 144h-339.2c-11.2-23.6-20.8-47.4-29.6-72.1h299.9c21 26 44.1 50 68.9 72.1zm1097.3-288h-236.6q9 35.2 13.7 72h216.2c-3.5 24.3-8.3 48.3-13.9 71.9h-197.7v0.8c0 24.2-1.7 47.8-4.4 71.2h180.7c-8.6 24.7-18.7 48.5-29.8 72.1h-164.6c-6.1 24.6-14.1 48.6-23.6 72.2h149.2c-15.4 24.9-32.2 48.8-50.5 71.7h-133.5c-14.6 25.3-31.1 49.5-49.2 72.2h118.3c-26.7 26-55 49.9-85.2 71.7h-101.3c-31.1 27.7-64.9 51.6-101.3 72h81.2c-97.7 46.3-206.7 71.9-321.7 71.9-115.2 0-224.4-25.6-322.1-71.9h175.8v-72h-297c-30.2-21.8-58.5-45.7-85-71.7h382v-72.2h-446.8c-18.1-22.9-35.1-46.8-50.5-71.7h788.4v-360.1h-290.7v-359.9h828.1c11.1 23.2 21.2 47.2 29.8 71.9h-372.2c25.2 22 48.3 46 68.9 72h324.7c5.6 23.4 10.4 47.6 13.9 71.9h-289c13.2 23.1 25.1 47.1 35.1 72.1h260.6c0.5 11.9 1 24 1 35.9 0 12-0.4 23.9-1 36zm-609.1-648h298.2c30.2 21.9 58.6 45.9 85.3 71.9h-383.5zm-606.1 216h-182.3c15.3-24.9 32.3-48.9 50.4-71.9h180.9c-17.9 22.5-34.6 46.7-49 71.9zm606.1-71.9h448c18.1 23 35 47 50.3 71.9h-498.3zm-488.1-72.1h-185.1c26.3-26 54.7-50 84.8-71.9h201.9c-36.7 20.3-70.5 44.6-101.6 71.9zm664.9-144.1h-643.7c97.6-45.9 206.8-71.6 322-71.6 115.1 0 224.1 25.7 321.7 71.6z"/>
	</g>
</svg>